<?xml version="1.0" encoding="UTF-8"?>
<svg xmlns="http://www.w3.org/2000/svg" version="1.1" viewBox="0 0 1366 768">
  <defs>
    <style>
      .cls-1 {
        fill: #fff;
      }
    </style>
  </defs>
  <!-- Generator: Adobe Illustrator 28.7.1, SVG Export Plug-In . SVG Version: 1.2.0 Build 142)  -->
  <g>
    <g id="Layer_1">
      <g id="unWXdg">
        <g>
          <path d="M991.79,329.28h-.32c-.23.32-.47.64-.75.96-.06.09-.14.17-.21.26-.05.05-.09.11-.14.15-.11.14-.23.26-.35.38-.12.14-.26.29-.41.43-.14.14-.29.28-.43.41-.24.23-.5.46-.76.67-.37.32-.75.61-1.16.9-.69.49-1.42.95-2.2,1.36h-.02c-.4.21-.81.41-1.22.6,2.86-.05,5.72-.06,8.58-.03l-.6-6.1Z"/>
          <path d="M991.79,329.28h-.32c-.23.32-.47.64-.75.96-.06.09-.14.17-.21.26-.05.05-.09.11-.14.15-.11.14-.23.26-.35.38-.12.14-.26.29-.41.43-.14.14-.29.28-.43.41-.24.23-.5.46-.76.67-.37.32-.75.61-1.16.9-.69.49-1.42.95-2.2,1.36h-.02c-.4.21-.81.41-1.22.6,2.86-.05,5.72-.06,8.58-.03l-.6-6.1Z"/>
          <path d="M991.79,329.28h-.32c-.23.32-.47.64-.75.96-.06.09-.14.17-.21.26-.05.05-.09.11-.14.15-.11.14-.23.26-.35.38-.12.14-.26.29-.41.43-.14.14-.29.28-.43.41-.24.24-.5.46-.76.67-.37.32-.75.61-1.16.9-.69.49-1.42.95-2.2,1.36h-.02c-.4.21-.81.41-1.22.6,2.86-.05,5.72-.06,8.58-.03l-.6-6.1Z"/>
          <g>
            <path d="M631.01,327.79c-9.86.89-17.52,2.86-26.03-1.83-7.37-4.05-16.11-5.66-24.32-8.12-10.5-3.13-21.08-6.05-31.41-9,1.53-11.45,2.8-20.91,4.22-31.43,30.16,10.41,55.09,26.69,77.54,50.38Z"/>
            <path d="M535.57,163.24c7.64,7.93,15.45,15.73,22.78,23.95,1.47,1.65,1.02,5-.14,7.61-4.72-6.33-9.25-12.82-14.31-18.86-1.45-1.73-4.51-2.09-6.82-3.07,5.55,7.4,11.11,14.81,16.66,22.22,1.09,2.69,2.19,5.4,3.67,9.06-5.66.6-10.3,1.09-14.95,1.57-.05.47-.09.93-.14,1.41,4.04.26,8.07.86,12.08.72,4.71-.17,6.74,2.17,6.53,6.36-.44,9.34-1.65,18.66-1.79,28-.14,9.06.69,18.13,1.12,27.68-4.65.35-7.72-1.33-6.51-6.25,4.86-19.64-4.71-29.96-22.06-36.06-4.71-1.65-8.85-4.91-13.28-7.37-.37-.2-.98.08-4.07.4,3.71,4.92,6.05,9.55,9.72,12.52,6.71,5.4,14.38,9.58,21.28,14.78,2.08,1.57,4.3,4.89,4.11,7.23-1.48,19.23-3.52,38.41-5.58,59.6-16.46-12.06-31.4-22.52-45.64-33.83-3.15-2.49-4.34-7.9-5.59-12.23-2.19-7.49-3.73-15.19-6.91-22.93-.49,6.25-.98,12.49-1.64,20.88-14.22-13.62-30.2-15.22-48.48-12.63,2.38-3.07,3.5-4.98,5.06-6.45,12.46-11.72,16.28-27.02,18.34-43.2,1.96-15.25,6.42-29.27,22.42-36.44-.52-.47-1.02-.96-1.53-1.44-4.75,3.32-9.52,6.63-14.09,9.83,4.45-9.81,17.06-17.72,30.28-19.18,11.65-1.28,22.81.38,33.69,4.54,1.86.72,3.85,1.04,5.79,1.56-29.26-20.67-69.32-6.92-81.1,27.83-2.86,8.42-4.97,17.13-8.47,25.27-8.88,20.53-24.53,33.2-46.48,37.85-3.07.66-6.28.72-11.31,1.27,4.98-5.3,8.62-9.08,12.14-12.93,10.67-11.69,15.25-25.57,14.66-41.27-.18-5.12.14-9.84,9.45-10.73-9.66-2.6-8.91-7.55-7.15-12.64,3.04-8.83,6.21-17.62,9.42-26.41,2.23-6.11,5.96-8.56,12.12-4.6.99.64,2.28.83,3.41,1.22.47-.53.93-1.05,1.41-1.59-3.06-1.82-6.11-3.62-10.62-6.31,8.56-7.12,14.98-12.75,21.8-17.84,1.13-.84,4.8-.05,5.93,1.22,3.85,4.3,7.09,9.14,11.85,13.19-2.67-6.5-5.35-12.99-8.28-20.1,4.34-1.77,8.01-3.26,11.85-4.83,2.14,3.1,3.96,5.75,6.74,9.78-.58-4.69-.96-7.76-1.36-10.96,1.47-.5,2.64-.95,3.84-1.31,21.32-6.59,23.07-5.41,24.43,16.29.17,2.69.61,5.35,2.11,7.95,1.22-8.64,2.43-17.27,3.76-26.76,20.85.92,39.08,7.51,55.73,19.9-2,3.07-3.62,5.55-5.26,8.06.67.37,1.33.86,1.44.75,6.68-6.04,12.06-3.84,16.95,2.51,5.07,6.59,10.27,13.08,15.87,20.18-5.5,1.8-9.98,3.27-16.2,5.32,7.46.63,14.22-.72,18.01,2.03,3.84,2.8,4.75,9.63,7.54,16.02-16.95-1.28-32.21-.32-45.86,8.48-7.63-11.34-15.83-21.36-28.31-26.83h0Z"/>
            <path d="M368.24,318.55c-5.15,7.73-9.23,13.65-13.08,19.7-10.73,16.8-14.32,35.42-15.55,55.1-1.02,16.62-4.45,33.08-6.4,49.65-.83,7.05-1.9,14.46-.6,21.28,2.06,10.84-.87,19.89-5.93,28.98-2.92,5.26-5.14,10.9-8.36,17.84-23.37-69.03-.89-148.51,49.92-192.55Z"/>
            <path d="M769.47,669.56c-2.97-.63-5.96-1.12-8.91-1.85-28.8-7.06-58.18-9.06-87.66-11.11-18.08-1.25-36.18-5.04-53.8-9.57-43.91-11.3-84.89-29.47-121.82-56.07-8.82-6.36-17-13.63-25.3-20.33,3.29,11.11,36.32,41.76,64.26,54.87,26.12,12.23,53.02,22.81,77.94,33.43-33.06,5.79-68.17,13.19-104.44,1.85-35.94-11.23-64.26-33.05-90.35-58.79,26.21,39.08,62.88,63.02,109.35,74.04-11.83,3.9-22.78,7.6-33.8,11.04-1.44.44-3.45-.05-4.91-.73-32.02-14.98-60.15-34.9-80.9-64.12-17.55-24.7-23.29-51.88-18.07-81.75,3.85-22.03,8.67-44.28,5.07-66.69-2.89-17.98-7.86-35.65-12.47-53.3-4.2-16.03-9.49-32.01-5.62-48.68,2.29-9.89,6.71-19.29,10.15-28.87-9.83,8.67-14.63,20.16-16.25,33.28-2.09,17.01.93,33.49,5.67,49.72,6.57,22.56,12.04,45.4,9.48,69.06-1.44,13.33-4.46,26.54-7.52,39.62-12.89,54.98,6.45,98.19,48.1,133.41,3.48,2.93,6.99,5.84,10.39,8.85.49.41.53,1.33,1.54,4.16-17.61-3.62-34.09-6.44-50.24-10.53-11.75-3-16.34-14.17-21.38-23.59-13.92-25.95-16.28-53.94-10.5-82.36,4-19.63,10.71-38.69,14.93-58.27,4.36-20.27,1.8-40.32-6.63-59.58.5,4.6.93,9.2,1.51,13.79,3.65,28.75-4.17,55.3-14.66,81.62-4.92,12.38-8.59,25.48-11.14,38.58-4.55,23.33,1.91,44.8,13.74,64.92.5.86,1.02,1.71,1.5,2.6.09.17-.05.43-.08.66-43.21-29.56-54.54-66.54-40.29-109.58,5.09-15.38,10.84-30.66,17.76-45.28,10.76-22.71,12.03-46.48,11.25-70.88-.43-13.48-.41-27.01.32-40.48,2.12-38.99,23.05-64.01,59-77.22,8.32-3.06,16.91-5.37,25.37-8.01-.17-.78-.34-1.56-.5-2.34-12.84,3.41-25.68,6.82-38.05,10.1.58-.61,1.7-2.09,3.09-3.24,10.47-8.68,20.86-17.47,31.59-25.83,3.53-2.75,7.78-4.95,12.04-6.28,5.55-1.73,10.47-3.24,12.08-9.89.31-1.28,4.45-3.03,5.92-2.42,8.28,3.44,16.66,6.94,24.32,11.57,11.01,6.68,17.03,19.6,29.85,24.46,1.99.75,2.55,5.26,3.78,8.04-6.89-.61-13.68.11-19.37-2.05-6.89-2.63-13.47-7.02-18.94-12-2.14-1.94-.95-7.57-1.21-11.51-.11-1.64-.02-3.29-.02-7.25-1.42,2.75-1.93,3.47-2.17,4.25-2.25,7.34-5.73,11.19-14.25,7.29-3.41-1.56-8.02-.38-12.06-.79-1.77-.18-3.45-1.25-5.99-2.22-.78,1.25-2.2,3.53-4.51,7.25,21.58-5.47,36.3,5.17,50.81,16.71,1.35,1.07,3.74,1.09,5.67,1.13,12.58.32,23.92,3.94,34.07,11.6,2.64,1.97,6.28,3.13,9.61,3.59,15.87,2.19,31.79,3.82,47.64,6.02,4.49.61,9.58,1.39,13.05,3.93,11.1,8.1,23.02,8.39,35.39,5.37-6.48,11.28-12.63,22.47-19.27,33.34-3.61,5.87-1.82,9.61,3.59,12.29,5.43,2.67,11.07,4.86,16.62,8.24-7.66-1.18-15.3-3.18-22.99-3.35-10.27-.24-20.67.31-30.86,1.62-16.11,2.09-32.02,5.92-48.16,7.38-8.51.76-17.33-1.9-26.02-3.03-.23-1.07-.47-2.16-.7-3.24,10.32-6.88,20.65-13.77,31.93-21.29-16.81.18-27.42,10.94-40.37,21.2,3.84-23.68,13.82-42.32,26.7-59.7-14.51-4.13-28.84-8.18-43.17-12.24-.23.57-.46,1.15-.69,1.71,11.13,6.24,22.24,12.47,33.66,18.86-4.88,7.87-9.4,15.13-14.4,23.16-11.01-8.28-21.69-16.31-32.37-24.35-.6.47-1.21.93-1.8,1.41,8.1,10.46,15.87,21.23,24.49,31.24,3.47,4.02,4.22,6.95,2.42,11.86-2.4,6.56-3.65,13.54-5.72,21.61-13.36-12.89-23.66-26.34-29.55-43,2.34,19.83,11.92,36.04,24.95,50.98-3.5,6.21-7.06,12.53-11.01,19.53-14.84-14.89-25.04-31.38-27.79-51.89-2.74-20.45,3.67-38.55,14.96-55.33-.66-.6-1.33-1.21-1.99-1.8-4.49,4.55-9.78,8.59-13.33,13.79-8.53,12.49-9.97,26.96-9.66,41.67.75,34.5,11.28,66.54,25.27,97.52,33.2,73.61,91.42,117.65,167.47,139.94,25.82,7.57,52.03,13.76,77.89,21.12,27.77,7.9,53.96,19.24,78.21,39.74-4.94-1.07-7.84-1.73-10.76-2.34Z"/>
            <path d="M640.05,394.11c9.13-1.99,18.24-3.97,27.38-5.96,28.8,66.93,8.96,161.2-59.8,212.1-3.47-7.09-6.91-14.09-10.39-21.19,53.88-52.43,68.02-113.95,42.81-184.95Z"/>
            <path d="M559.4,575.53c-10.46-6.11-20.96-10.58-24.7-22.87-.34,1.54-.66,3.07-1.21,5.56-53.79-42.4-81.12-99.14-94.04-164.23,7.81,15.87,15.99,31.38,31.95,42.32,2.28-4.17,4.07-8.32,6.6-11.91,3.38-4.75,3.7-11.8,11.19-13.8,1.71-.46,2.09-5.85,3.1-8.99.92-2.84,1.83-5.69,3.09-9.55,22.62,10.84,45.57,5.79,68.31,2.87,2.16,14.17-5.79,22.24-18.63,20.24-8.53-1.33-17.18-1.96-25.77-2.84-1.44-.15-2.9-.03-4.48,1.04,10.33,2.19,20.7,4.23,30.98,6.63,7.58,1.76,10.88,9.48,9.61,21.15-.78,7.18-5.9,7.99-11.56,8.24-2.71.12-5.4.43-8.3,2.35,4,.55,8.01,1.6,12,1.53,4.62-.11,6.77,1.53,8.16,5.98,4.39,14.06,1.97,18.76-12.06,22.03-2.42.55-4.83,1.15-7.15,2.83,5.32,0,10.73.66,15.91-.17,5.53-.9,8.51,1.07,9.23,6.08,1.25,8.73,2.31,17.53,2.6,26.34.06,1.56-4,4.66-6.11,4.62-7.51-.15-14.99-1.35-24.26-2.34,2.31,5.55,4.55,10.91,6.8,16.28.81-.24,1.64-.49,2.45-.73-.38-3-.76-5.98-1.04-8.07,7.66,0,15.1-.15,22.52.17,1.3.05,3.16,1.9,3.67,3.32,2.42,6.82,4.45,13.79,6.53,20.38-18.92-4.54-36.94-8.87-54.95-13.19-.2.76-.4,1.53-.61,2.29,12.82,4.63,25.37,10.44,38.55,13.63,21.6,5.23,29.21,22.1,37.3,40.54-17.39-4.92-30.57-13.44-36.2-31.4-.53.49-1.09.96-1.62,1.44.66,3.78,1.31,7.55,2.14,12.23Z"/>
          </g>
          <path d="M991.79,329.28h-.32c-.23.32-.47.64-.75.96-.06.09-.14.17-.21.26-.05.05-.09.11-.14.15-.11.14-.23.26-.35.38-.12.14-.26.29-.41.43-.14.14-.29.28-.43.41-.24.23-.5.46-.76.67-.37.32-.75.61-1.16.9-.69.49-1.42.95-2.2,1.36h-.02c-.4.21-.81.41-1.22.6,2.86-.05,5.72-.06,8.58-.03l-.6-6.1Z"/>
          <path d="M991.79,329.28h-.32c-.23.32-.47.64-.75.96-.06.09-.14.17-.21.26-.05.05-.09.11-.14.15-.11.14-.23.26-.35.38-.12.14-.26.29-.41.43-.14.14-.29.28-.43.41-.24.23-.5.46-.76.67-.37.32-.75.61-1.16.9-.69.49-1.42.95-2.2,1.36h-.02c-.4.21-.81.41-1.22.6,2.86-.05,5.72-.06,8.58-.03l-.6-6.1Z"/>
          <path class="cls-1" d="M531.02,640.27c.17-.63.34-1.26.52-1.89-10.93-5.58-22.14-10.69-32.75-16.83-33.76-19.56-55.83-47-60.04-87.36-3.33-31.93-10.17-63.09-23.88-92.58-12.15-26.14-19.64-53.37-12.01-82.84-3.33,6.68-6.24,13.41-7.81,20.44-4.92,22.14.38,43.1,9.84,62.86,13.12,27.41,18.63,56.11,19.3,86.33,1.11,49.25,26.01,82.69,71,101.25,11.45,4.72,23.85,7.15,35.81,10.64ZM430.54,443.3c7.49,43.43,26.25,81.2,56.49,113.25,28.61,30.31,87.2,61,112.46,58.29-85.12-29.35-139.73-87.81-168.95-171.54ZM475.3,302.09c-13.83-2.17-26.64-.17-38.37,7.94-24.96,17.24-27.46,65.42-17.71,88.75-1.17-44.56,1.78-85.7,56.08-96.69ZM431.11,305.32c-28.82,2.29-56.92,24.2-59.97,47.58,15.01-23.75,35.36-38.36,59.97-47.58ZM599.24,370.09c-16.32-10.17-33.52-10.09-51.15-4.92,17.05,1.64,34.1,3.28,51.15,4.92Z"/>
          <path class="cls-1" d="M527.5,526.62c.84-.37,1.67-.74,2.51-1.1-5.33-13.64-9.21-27.37-4.17-41.92.31-.9-.98-2.27-1.22-3.47-1.15-5.64-3.11-11.31-3.09-16.96.05-14.89.36-14.86-7.15-28.55-2.63-4.8-4.97-9.77-7.44-14.67-.89.33-1.77.66-2.66.98,2.53,8.31,5.12,16.59,7.54,24.93.82,2.81,1.54,5.72,1.76,8.63,1.33,17.59,1.71,35.29,4.14,52.72.95,6.79,6.39,12.96,9.78,19.41ZM465.51,457.1c8.14,14.68,29.39,20.34,39.91,11.41-6.71-1.36-13.43-2.32-19.9-4.16-6.46-1.83-12.67-4.55-20.02-7.26ZM505.52,484.78c-9.4-.57-18.34-1.1-28.16-1.69,9.2,8.89,20.3,9.45,28.16,1.69Z"/>
          <path d="M1052.66,340.4c2.77.49,5.55,1.01,8.32,1.59-2.77-.58-5.55-1.12-8.32-1.59Z"/>
          <path d="M817.16,278.46c-6.5,0-12.34,4.51-14.75,11.68h-.44l-.32-10.47h-8.48c.34,4.95.44,10.35.44,16.63v27.96c-2.64,1.65-5.07,4.26-7,6.63-2,2.46-2.17,6.39-2.84,8.68-1.77-.6-3.45-1.3-5.11-2l.75-33.26c0-18.39-11.45-22.79-18.6-22.79-3.64,0-7.05,1.1-9.9,2.75-2.98,1.65-5.4,4.08-6.94,6.83h-.21v-33.25h-9.69v75.26c-5.73-.23-11.45-.44-17.18-.66,2.31-.6,4.17-1.27,5.52-1.94l-1.97-7.6c-3.85,1.88-9.8,3.09-15.64,3.09-18.05,0-28.51-11.66-28.51-29.82,0-19.49,11.56-30.6,28.95-30.6,6.16,0,11.34,1.31,14.96,3.07l2.31-7.81c-2.52-1.31-8.36-3.3-17.61-3.3-23,0-38.73,15.74-38.73,38.96,0,17.99,8.61,29.91,21.57,34.88-11.16-.4-22.32-.78-33.47-1.19-7.44-.28-14.46.93-18.83,7.66-6.07,9.32-11.72,18.92-17.53,28.43-2.74,4.49-1.18,7.9,3.16,9.97,7.09,3.39,14.28,6.63,21.58,9.52,1.99.79,4.57.12,6.88.12-1.82-2.86-4.1-4.23-6.34-5.66-19.2-12.08-18.57-8.44-7.15-29,4.23-7.63,10.07-10.94,19.18-10.5,20.59,1.01,41.24,1.04,61.86,1.51,10.06.23,14.15,8.15,8.91,17.1-3.61-12.69-3.61-12.73-17.04-12.6-15.53.15-31.14,1.39-46.59.32-13.15-.9-19.69,5.4-24.12,16.16-.46,1.13-.96,2.26-1.8,4.26,5,3.71,10.15,7.32,15.03,11.25,5.23,4.22,10.59,4.88,16.94,2.61,7.17-2.55,14.55-4.57,21.96-6.33,11.42-2.72,22.87-5.5,34.45-7.35,9.25-1.47,19.23-3.67,25.02,7.73.92,1.82,4.16,3.29,6.44,3.45,9.57.69,19.17.83,29.68,1.19,1.6,6.36,7.08,10.04,15.27,8.97,2.72-.37,5.24-2.25,7.86-3.44-1.36-1.45-3-2.74-4.02-4.4-1.02-1.7-1.91-3.73-2.08-5.69-.78-9.08-1.83-18.19-1.7-27.27.09-6.33,1.99-12.64,3.07-18.95.69-.02,1.38-.03,2.06-.05.83,1.12,1.67,2.23,2.49,3.35-.12-6.74-1.45-9.94-5.72-10.42v-17.62c0-1.65.23-3.19.44-4.51,1.33-7.28,6.16-12.44,12.99-12.44,1.31,0,2.31.11,3.3.32v-9.13c-.89-.23-1.65-.34-2.75-.34ZM769.71,334.69c-.38-.06-.78-.09-1.16-.11-8.27-.38-16.54-.73-24.81-1.09v-29.64c0-1.86.11-3.3.66-4.62,1.76-5.29,6.71-9.69,12.99-9.69,9.13,0,12.32,7.26,12.32,15.85v29.29Z"/>
          <path d="M808.96,332.71h-.08v-.11s.05.08.08.11Z"/>
          <path class="cls-1" d="M475.3,302.09c-54.3,10.99-57.25,52.13-56.08,96.69-9.76-23.33-7.25-71.51,17.71-88.75,11.73-8.11,24.54-10.1,38.37-7.94Z"/>
          <path class="cls-1" d="M431.11,305.32c-24.61,9.22-44.96,23.83-59.97,47.58,3.05-23.38,31.15-45.3,59.97-47.58Z"/>
          <path d="M599.24,370.09c-17.05-1.64-34.1-3.28-51.15-4.92,17.63-5.17,34.84-5.25,51.15,4.92Z"/>
        </g>
      </g>
      <g>
        <path d="M836.4,264.76c-3.52,0-6.05,2.64-6.05,6.05s2.42,5.95,5.84,5.95c3.85,0,6.27-2.64,6.16-5.95,0-3.41-2.31-6.05-5.95-6.05Z"/>
        <path d="M943.69,263.24c-3.52,0-6.05,2.64-6.05,6.05s2.42,5.95,5.84,5.95c3.85,0,6.27-2.64,6.16-5.95,0-3.41-2.31-6.05-5.95-6.05Z"/>
        <path d="M1094.69,351.2c-11.02-3.82-22.12-6.83-33.29-9.14l.06-42.45c0-18.28-11.45-22.68-18.82-22.68-8.8,0-14.98,4.95-17.61,10.03h-.23l-.55-8.82h-8.59c.34,4.4.44,8.93.44,14.43l-.57,43.55c-4.69-.29-9.4-.49-14.11-.61-.52-3.62-.95-8.47-.95-12.27v-19.92c0-10.68-3.96-21.8-20.25-21.8-6.71,0-13.1,1.88-17.5,4.74l2.2,6.37c3.74-2.42,8.93-3.96,13.88-3.96,10.88,0,12.11,7.93,12.11,12.34v1.1c-20.59-.11-32.04,6.92-32.04,19.81,0,5.73,3.04,11.4,9.06,13.94-6.47.28-12.93.64-19.41,1.1v-52.7h-9.69v53.28h1.76c-4.91.35-9.83.7-14.73,1.02l-.43-6.99c-1.21.34-3.09.66-5.61.66-5.4,0-7.28-3.74-7.28-10.35v-28.72h13.88v-7.38h-13.88v-15.29l-9.46,2.52v12.76h-8.25v7.38h8.25v29.06c0,6.27.99,11.01,3.74,13.86,1.33,1.51,3.07,2.64,5.2,3.32-11.51.61-23,1.01-34.51.93,7.05-2.38,10.94-7.76,10.94-14.61,0-7.92-4.74-12.53-13.99-16.06-6.92-2.64-10.12-4.62-10.12-9.02,0-3.96,3.19-7.28,8.91-7.28,4.95,0,8.8,1.77,10.9,3.09l2.42-7.05c-2.97-1.76-7.7-3.3-13.1-3.3-11.43,0-18.37,7.05-18.37,15.64,0,6.37,4.51,11.66,14.09,15.07,7.15,2.64,9.9,5.18,9.9,9.8s-3.3,7.93-10.35,7.93c-4.85,0-9.9-1.99-12.76-3.85l-2.43,7.37c1.05.63,2.23,1.18,3.53,1.67-4.13-.23-8.24-.55-12.35-.95-1.16-.11-2.34-.24-3.5-.38v-52.61h-9.69v51.16c-7.55-1.3-15.06-2.92-22.59-4.23h-.02c-.96.83-2.75,1.6-2.75,2.42-.17,14.52-.12,29.03-.12,43.84,2.8-.73,4.48-1.28,6.19-1.62,39.56-7.8,79.42-7.66,119.33-3.94,48.41,4.51,96.54,4.69,144.09-7,10-2.45,19.66-6.22,29.47-9.39-3.84-3.33-7.12-4.65-10.47-5.81ZM991.79,329.28l.6,6.1c-2.86-.03-5.72-.02-8.58.03.41-.18.83-.38,1.22-.6h.02c.78-.41,1.51-.87,2.2-1.36.41-.29.79-.58,1.16-.9.26-.21.52-.44.76-.67.14-.14.29-.28.43-.41.15-.14.29-.29.41-.43.12-.12.24-.24.35-.38.05-.05.09-.11.14-.15.08-.09.15-.17.21-.26.28-.32.52-.64.75-.96h.32ZM991.13,308.82v9.25c0,.99-.21,2.09-.55,3.07-1.54,4.52-5.95,8.93-12.87,8.93-4.95,0-9.14-2.98-9.14-9.25,0-10.35,12-12.21,22.56-12ZM806.38,355.91c6.68-5.12,203.28-5.38,223.18-.29-12.12,5-213.43,5.27-223.18.29ZM1026.23,336.93l-.43-37.54c0-1.65.21-3.3.66-4.51,1.65-5.4,6.6-9.9,12.99-9.9,9.13,0,12.32,7.15,12.32,15.74l.46,39.6c-8.64-1.5-17.3-2.61-26-3.39ZM1052.66,340.4c2.77.47,5.55,1.01,8.32,1.59-2.77-.58-5.55-1.1-8.32-1.59Z"/>
        <path d="M1052.66,340.4c2.77.49,5.55,1.01,8.32,1.59-2.77-.58-5.55-1.12-8.32-1.59Z"/>
      </g>
    </g>
  </g>
</svg>